<svg width="64" height="64" viewBox="0 0 64 64" fill="none" xmlns="http://www.w3.org/2000/svg">
<rect width="64" height="64" rx="12" fill="#1E1E1E"/>
<path d="M32 32.6667C32 30.7217 32.7726 28.8565 34.1479 27.4812C35.5232 26.1059 37.3884 25.3333 39.3333 25.3333C41.2783 25.3333 43.1435 26.1059 44.5188 27.4812C45.894 28.8565 46.6667 30.7217 46.6667 32.6667C46.6667 34.6116 45.894 36.4768 44.5188 37.8521C43.1435 39.2274 41.2783 40 39.3333 40C37.3884 40 35.5232 39.2274 34.1479 37.8521C32.7726 36.4768 32 34.6116 32 32.6667Z" fill="#1ABCFE"/>
<path d="M17.3333 47.3333C17.3333 45.3884 18.106 43.5232 19.4812 42.1479C20.8565 40.7726 22.7217 40 24.6667 40H32V47.3333C32 49.2783 31.2274 51.1435 29.8521 52.5188C28.4769 53.894 26.6116 54.6667 24.6667 54.6667C22.7217 54.6667 20.8565 53.894 19.4812 52.5188C18.106 51.1435 17.3333 49.2783 17.3333 47.3333V47.3333Z" fill="#0ACF83"/>
<path d="M32 10.6667V25.3333H39.3333C41.2783 25.3333 43.1435 24.5607 44.5188 23.1854C45.894 21.8102 46.6667 19.9449 46.6667 18C46.6667 16.0551 45.894 14.1898 44.5188 12.8145C43.1435 11.4393 41.2783 10.6667 39.3333 10.6667H32Z" fill="#FF7262"/>
<path d="M17.3333 18C17.3333 19.9449 18.106 21.8102 19.4812 23.1854C20.8565 24.5607 22.7217 25.3333 24.6667 25.3333H32V10.6667H24.6667C22.7217 10.6667 20.8565 11.4393 19.4812 12.8145C18.106 14.1898 17.3333 16.0551 17.3333 18V18Z" fill="#F24E1E"/>
<path d="M17.3333 32.6667C17.3333 34.6116 18.106 36.4768 19.4812 37.8521C20.8565 39.2274 22.7217 40 24.6667 40H32V25.3333H24.6667C22.7217 25.3333 20.8565 26.1059 19.4812 27.4812C18.106 28.8565 17.3333 30.7217 17.3333 32.6667V32.6667Z" fill="#A259FF"/>
</svg>
